# xmcd
#
# Track frame offsets:
#	150
#	18828
#	28970
#	46356
#	63199
#	81510
#	95047
#	111289
#	133452
#	155454
#	172639
#	185810
#	203972
#	215858
#	231407
#	247606
#	265244
#	283567
#	299569
#
# Disc length: 4217 seconds
#
# Revision: 2
# Processed by: cddbd v1.5.2PL0 Copyright (c) Steve Scherf et al.
# Submitted via: audiograbber 1.83.01
#
DISCID=24107713
DTITLE=Various Artist - Saturday Night Country 10th Anniversary Album
DYEAR=2003
DGENRE=Country
TTITLE0=Lee Kernaghan - Camooweal
TTITLE1=Dead Ringer Band - Living In The Circle
TTITLE2=John Williamson - Cootamundra Wattle
TTITLE3=Adam Brand - Good Things In Life
TTITLE4=Beccy Cole - Big Girls (Bluegrass Version)
TTITLE5=Keith Glass - Wilderness Trail
TTITLE6=Catherine Britt - Nashville Blues
TTITLE7=The Holdens - Dreams Of Silver and Memories Of Gold
TTITLE8=Dianna Corcoran - Why Do I Cry
TTITLE9=Adam Harvey - The Shake Of A Hand
TTITLE10=Audrey Auld - Dale Watson - Jackson
TTITLE11=Sara Storer - Man Trap (Single Edit)
TTITLE12=Alan Caswell - On The Inside
TTITLE13=Tania Kernaghan - A Farmer's Prayer
TTITLE14=Luke O'Shea And Medicine Wheel - Jigsaw
TTITLE15=Tamara Stewart - For The Sake Of Ourselves
TTITLE16=Brendon Walmsley - Buckalong
TTITLE17=Leslie Avril - Cowboy In My Bed
TTITLE18=Greg Champion - See You Again Sometime
EXTD=
EXTT0=
EXTT1=
EXTT2=
EXTT3=
EXTT4=
EXTT5=
EXTT6=
EXTT7=
EXTT8=
EXTT9=
EXTT10=
EXTT11=
EXTT12=
EXTT13=
EXTT14=
EXTT15=
EXTT16=
EXTT17=
EXTT18=
PLAYORDER=
